<svg width="120px" height="120px" viewBox="0 0 120 120" version="1.1" xmlns="http://www.w3.org/2000/svg" xmlns:xlink="http://www.w3.org/1999/xlink">
	<g stroke="none" stroke-width="1" fill="none" fill-rule="evenodd">
		<path d="M120,108 C120,114.6 114.6,120 108,120 L12,120 C5.4,120 0,114.6 0,108 L0,12 C0,5.4 5.4,0 12,0 L108,0 C114.6,0 120,5.4 120,12 L120,108 Z" id="Shape" fill="#1589EE"/>
		<g id="related-list-icon" transform="translate(30.000000, 30.000000)" fill="#FFFFFF">
			<rect id="rect1" x="0" y="0" width="20" height="20" rx="2"/>
			<rect id="rect2" x="0" y="30" width="20" height="20" rx="2"/>
			<rect id="rect3" x="0" y="60" width="20" height="20" rx="2"/>
			<path d="M35,5 L55,5 M35,10 L50,10" stroke="#FFFFFF" stroke-width="2" stroke-linecap="round"/>
			<path d="M35,35 L55,35 M35,40 L50,40" stroke="#FFFFFF" stroke-width="2" stroke-linecap="round"/>
			<path d="M35,65 L55,65 M35,70 L50,70" stroke="#FFFFFF" stroke-width="2" stroke-linecap="round"/>
		</g>
	</g>
</svg>
